<svg height="600" viewBox="0 0 800 600" width="800" xmlns="http://www.w3.org/2000/svg"><path d="m202.53 427.769c-5.812-3.393-12.847-5.3-11.114-13.734 1.1-5.358 2.031-11 4.468-15.788 7.533-14.792 14.515-30.1 24.009-43.6 12.6-17.912 30.5-29.689 53.006-30.575 21.475-.846 43.038.279 64.554.826 29.557.751 59.237 3.336 86.724-11.757 17.638-9.685 32.619-21.458 42.081-40.041 10.7-21.014 22.01-41.833 34.68-61.7 17.661-27.691 42.588-45.731 75.914-50.447 3.375-.478 7.663-1.906 10.029-.454 4 2.457 7.34 6.54 9.827 10.627.867 1.426-.891 6.091-2.7 7.167-3.879 2.3-8.688 2.973-12.9 4.808-3.341 1.456-6.365 3.645-9.521 5.522-.584.348-1.174 1.143-1.688 1.085-11.245-1.258-16.33 8.6-24.129 13.448-18.02 11.206-28.8 28.6-38.577 46.687-9.23 17.078-18.015 34.4-27.42 51.377a48.478 48.478 0 0 1 -10.441 13.136c-12.146 10.432-24.575 19.7-40.064 26.074-30.037 12.371-60.2 8.863-90.839 7.055-18.973-1.12-38.177-2.167-57.03-.481-23.93 2.141-40.51 17.268-53.768 36.489-3.489 5.056-8.79 8.857-12.318 13.893-2.338 3.337-2.821 7.923-4.456 11.815-2.563 6.092-5.395 12.067-8.327 18.568zm381.705-262.043-.45-1.646-33.665 9.32.537 1.947z"/><path d="m512.564 128.184c-1.277 1.082-2.555 2.164-4.527 3.836h6.328c4.5 8.258 1.657 14.3-4.51 19.61-5.373 4.628-10.345 9.9-18.3 9.65-.823-.025-2.19.312-2.417.854-3.022 7.186-8.316 6.885-14.032 4.3-.331 3.405.1 6.872-1.139 9.568-1.338 2.905-4.157 5.171-6.479 7.572-13.422 13.881-18.659 31.84-25.39 49.239-6.189 16-14.82 30.81-30.17 40.17-2.006 1.223-4.614 1.461-8.426 2.6-2.474 4.043-6.123 9.043-13.975 9.784-4.566.43-8.771 4.422-13.357 4.964-12.623 1.493-25.5 3.586-38.013 2.457-11.6-1.046-23.15-5.156-34.2-9.311-24.03-9.037-48.6-10.417-73.23-5.019-13.683 3-26.367 9.523-35.678 21.042-2.818 3.486-6.665 6.12-9.9 9.293a166.093 166.093 0 0 0 -36.8 53.513c-2.681 6.264-5.234 12.584-7.9 18.853-1.256 2.95-2.688 4.413-6.2 2.046-8.652-5.83-9.959-9.641-7.486-20.375 9.93-43.094 36.093-74.45 71.636-98.817 15.752-10.8 34.224-13 52.642-12.486 12.423.347 24.917 2.713 37.111 5.391 11.369 2.5 22.327 6.808 33.57 9.947 13.663 3.814 27.3 1.279 40.854-1.014 34.193-5.785 55.349-26.085 65.777-58.713 11.564-36.182 34.8-62.356 69.251-78.33 4.267-1.978 9.352-2.192 14.057-3.223zm-149.222 143.586q.222.832.447 1.665l20.811-5.635q-.219-.82-.44-1.642zm-167.077.11 1.007 1.814 17.084-9.415-1.136-2.053z"/><path d="m575.3 278.308c-2.659 2.905-5.359 5.775-7.959 8.732-1.115 1.268-3.153 3.558-2.854 3.96 4.051 5.457-.208 10.011-3.151 12.1-7.553 5.356-5.08 12.956-6.126 19.714-.622 4.015-5.639 10.311-9.32 11-.3-1.833-.592-3.623-.884-5.413-1.615.792-3.515 1.276-4.782 2.445a93.653 93.653 0 0 0 -6.509 7.392l6.344 1.238c.367 2.305.721 4.525 1.071 6.717-6.9 2.553-13.861 3.78-19.149 9.712-2.874 3.225-6.856 4.736-4.582 10.062.194.453-2.556 3-3 2.767-10.764-5.594-16.613 4.372-19.889 9.59a20.969 20.969 0 0 1 -9.329 8.247c-2.67 1.258-6.713-.456-10.154-.739a14.13 14.13 0 0 0 -3.077.515c.154 2.053.294 3.909.431 5.723-6.167 2.622-6.167 2.622-20.159-1.263-1.244 7.737-7.518 10.341-15.644 6.134-.458 1.539-.894 3-.954 3.206-8.4-.186-17.184-8.637-24.413 3.748-6.356-7.019-12.955-4.007-20.171-.334-3.383 1.722-7.956 1.452-12 1.479-16.484.113-32.694 1.212-48.732 6-7.859 2.346-14.516 7.123-21.924 9.292-16 4.687-23.346 18.888-34.565 28.674-5.264 4.592-7.945 12.112-11.923 18.223-2.426 3.726-3.467 9.609-10.509 6.123-5.45-2.7-7.5-6.147-4.979-12.77 11.73-30.762 30.7-54.662 61.974-68.114 23.543-10.126 48.078-10.255 72.81-10.927 15.986-.434 31.952-1.565 47.931-2.279 2.474-.111 6.688-2.356 5.566 3.5l.03-.113-3.093 1.175-.07 1.081a21.527 21.527 0 0 0 4.628.356c1.765-.231 3.479-1.5 5.182-1.438 13.765.5 25.362-6.165 36.881-11.969 12.241-6.169 23.655-14.028 35.178-21.537 3.509-2.287 6.181-5.858 9.236-8.841l-.2.169 8.2-6.516-9.618-.6c4.525-5.513 8.295-10.752 12.757-15.313 2.958-3.025 5-1.7 7.1 3.668l10.508-.732-4.556-6.151c-2.954-.241-6.615.326-7.218-.777-1.109-2.031-.839-5.121-.379-7.629a50.447 50.447 0 0 1 3.138-10.383c.84-1.993 2.623-3.589 4.654-6.242-1.323-5.477.975-11.114 10.7-23.625l4.463 2.211c-.869-8.471 0-9.835 4.146-9.488v8.676l-.142-.193 4.526 9.28 3.26-.901z"/><path d="m575.3 278.308-1.3-1.378c.916-9.75.512-10.185-7.781-8.374l.142.193 9.39-8.94-7.272-4.661c2.655-1.543 4.553-2.706 6.515-3.751.648-.345 1.772-.132 2.152-.6 14.814-18.26 34.47-29.292 56.2-36.771 10.05-3.459 20.66-5.3 31.037-7.786a26.512 26.512 0 0 1 4.634-.3q.325 1.093.652 2.187l-39.043 11.473.5 1.9 40.4-11.159c4.7 10.371 3.971 11.648-5.694 15.8-12.685 5.453-25.164 11.383-37.78 17-2.508 1.116-4.89 2.883-7.9-.2-1.221-1.251-4.8-.206-7.959-.206v-4.681l-9.712 6.145 7.165.856c0 .687.172 1.229-.026 1.478-2.187 2.764-5.458 4.113-5.178 9.259.193 3.527-4.466 3.41-6.544.089l-6.583 7.3c.5 6.45-4.154 10.223-12.83 7.664.321 2.1 1.093 4.04.677 5.679-.217.864-2.505 1.206-3.862 1.784z"/><path d="m492.132 359.705-26.693 14.039-1.3-2.1a38.64 38.64 0 0 1 3.667-2.754c6.195-3.632 12.389-7.273 18.7-10.694 1.355-.735 3.2-.572 4.816-.822z"/><path d="m434.7 382.765c4.789-8.128 13.556-6.614 20.91-9.074-.351 4.39-6.6 6.922-20.855 8.922a.815.815 0 0 0 -.055.152z"/><path d="m522.667 341.479c-2.539.439-5.248.47-7.57 1.434-2.281.947-4.168 2.842-6.868 4.781.631-5.829 6.473-12.06 10.253-11.172 1.635.384 2.664 3.342 3.975 5.129.007-.003.21-.172.21-.172z"/></svg>