<?xml version="1.0" encoding="UTF-8"?><svg id="Layer_0_Image" data-name="Layer 0 Image" xmlns="http://www.w3.org/2000/svg" viewBox="0 0 800 600" x="0px" y="0px" width="800px" height="600px" xmlns:xlink="http://www.w3.org/1999/xlink" version="1.1"><title>1</title><path d="M200.137,88.309a148.1,148.1,0,0,1,18.985-12.23c4.12-2.3,8.4-4.311,12.559-6.547,1.668-.9,2.989-1.318,3.754,1.548-.827-3.049,1-3.66,2.792-4.308a70.091,70.091,0,0,0,6.984-2.607c2.068-1.011,2.908-.467,3.077,2.149.793-5.216,5.433-4.94,8.31-6.426a42.882,42.882,0,0,1,19.815-4.815,11.9,11.9,0,0,0,3.883-.384c3.875-1.361,7.812-.754,11.725-.595a107.5,107.5,0,0,1,11.8.876c6.584,1,13.245,1.176,19.817,2.5,7.586,1.525,15.189,3.077,22.82,4.318,19.98,3.249,39.077,9.541,58.072,16.2,15.559,5.455,30.974,11.328,46.1,17.883A224.733,224.733,0,0,1,500,125.716c16.8,13.182,33.014,27.117,50.418,39.515,9.077,6.467,18.656,12.194,28.178,17.994,20.6,12.549,39.124,27.593,54.6,46.188,9.744,11.7,17.641,24.708,25.858,37.474,9.893,15.373,20.69,30.115,31.162,45.083a138.415,138.415,0,0,1,17.818,33.91c3.625,10.442,5.964,21.2,5.477,32.246-.509,11.555-1.6,23.1-6.25,33.993a146.752,146.752,0,0,1-7.252,14.541c-3.726,6.6-8.849,11.619-14.1,16.588-10.583,10.008-23.168,16.737-36.944,21.411-9.429,3.2-18.889,6.224-28.719,7.887a158.087,158.087,0,0,1-48.441.905,162.929,162.929,0,0,0-67.646,4.643c-11.062,3.142-22.124,6.428-32.748,10.633-22.575,8.934-44.495,19.449-66.567,29.583-18.4,8.447-37.009,16.405-56.741,21.379a222.355,222.355,0,0,1-30.666,5.729c-16.169,1.727-32.263.312-48.3-2.24a413.952,413.952,0,0,1-55.029-12.4c-28.479-8.623-52.062-24.344-70.1-48.072-14.38-18.912-28.041-38.372-38.808-59.587-14.364-28.3-20.139-58.482-18.513-90.241.807-15.751,1.561-31.5,3.2-47.175,1.924-18.407,5.006-36.641,10.916-54.25a290.868,290.868,0,0,1,18.128-43.433c11.679-22.132,24.693-43.42,40.813-62.615,8.732-10.4,17.969-20.378,28.959-28.58,3.839-2.865,7.3-6.24,11.516-8.6.106,1.168-.414,1.719-1.428,2.439-3.156,2.24-6.32,4.544-8.618,7.766a3.059,3.059,0,0,0-2.768,1.038c-3.115,3.152-6.549,5.994-9.611,9.194-3.632,3.8-7.906,7.036-10.505,11.759a16.493,16.493,0,0,0-6.228,7.625c2.16-2.479,5.806-3.811,6.13-7.717a4.818,4.818,0,0,0,2.651-1.636c3.821-4.154,7.9-8.039,11.923-11.988,2.791-2.74,6.788-4.372,8.35-8.339,1.449.565,2.152-.641,3.028-1.332,4.147-3.271,8.246-6.6,12.69-9.48,2.651-1.718,5.218-3.566,7.823-5.355l-.49-.726c-3.468,2.13-6.983,4.189-10.374,6.434C201.852,88.524,201.225,89.393,200.137,88.309Zm-2.1,10.042c-.636-1.013.218-1.982.156-3.07-1.491,1.482-4.26,1.51-4.633,4.738,1.736-.887,2.9-2.169,4.578-1.772-1.892,2.866-5.371,4.3-6.474,8.054-.6,2.029-3.837,2.466-4.941,4.664-2.854-2.095-2.149.4-2.247,1.768-.1,1.419-1.282,1.946-2.194,2.6a13.984,13.984,0,0,0-2.6,2.71c-4.192,5.057-8.651,9.892-12.936,14.874-1.607,1.869-3.621,3.562-4.9,5.431-1.367,2-2.518,4.329-3.946,6.418-5.274,7.708-11.091,15.115-15.637,23.233-5.442,9.716-11.128,19.341-15.669,29.558-3.84,8.639-8.341,17.016-11.056,26.1-1.723,5.767-4.752,11.016-5.786,17.09-1.23,7.229-3.768,14.181-4.853,21.512-1.35,9.124-3.08,18.231-3.667,27.409-.822,12.841-1.85,25.672-2.228,38.554-.566,19.271-.11,38.4,4.347,57.256,2.42,10.237,5.268,20.375,9.765,29.884,10.556,22.324,24.8,42.37,39.288,62.231,15.877,21.767,36.363,37.063,62.393,44.911a394.426,394.426,0,0,0,56.549,12.259,156.229,156.229,0,0,0,55.816-1.949c23.735-5.039,45.989-14.036,67.792-24.335,28.313-13.375,56.459-27.108,86.279-36.985,19.033-6.3,38.4-10.608,58.52-11.026,10.711-.222,21.294,1.349,31.907,2.332,26.8,2.481,52.156-2.968,76.642-13.384,12.216-5.2,23.356-12.117,32.187-22.226,13.438-15.381,18.391-33.9,19.1-53.77.737-20.582-6.1-38.959-17.669-55.64-15.208-21.934-30.845-43.58-44.973-66.238-14.628-23.459-34.011-41.994-57.385-56.516-14.775-9.18-29.478-18.452-43.471-28.825-13.172-9.765-25.532-20.53-38.426-30.631-14.194-11.121-28.717-21.819-45.662-28.519-14.344-5.672-28.784-11.106-43.218-16.548C395,85.3,380.763,81.447,366.8,76.781a67.764,67.764,0,0,0-14.691-2.954c-4.667-.458-8.192-3.573-13.478-3.256-5.128.307-11.115-1.7-16.611-3.338a28.947,28.947,0,0,0-7.177-.512,82.324,82.324,0,0,1-14.048-.8c-4.309-.707-9.519,2.231-12.919-3.122,1.175,1.771,1.271,3.481.113,4.778-1.094,1.225-2.885,1.033-4.365.586-2.808-.849-5.58-.393-8.412-.305-4.3.132-7.829,3.051-12.2,2.937-1.246-.033-2.546-1.179-3.857-.023-2.063,1.818-4.987,1.485-7.173,2.515-4.079,1.92-8.445.889-12.476,2.276a43.774,43.774,0,0,0-7.712,3.543c-2.187,1.261-4.545,2.634-7.237,2.816-1.373.093-2.132,1.683-3.625,1.421.172,3.142-2.66,2.647-4.318,3.614-2.08,1.214-4.5,1.639-6.448,3.238C206.392,93.281,202.689,96.532,198.037,98.351ZM662.362,446.332c6.835-1.825,21.707-14.551,22.532-19.636A102.27,102.27,0,0,1,662.362,446.332Z"/></svg>